<svg width="65" height="61" fill="none" xmlns="http://www.w3.org/2000/svg"><path d="M35.093 60.683c16.467 0 29.817-13.432 29.817-30 0-16.569-13.35-30-29.817-30-16.468 0-29.818 13.431-29.818 30 0 16.568 13.35 30 29.818 30z" fill="#19202A"/><path d="M22.52 17.06h-6.518a1830.704 1830.704 0 01-6.795 12.117A1476.685 1476.685 0 010 45.305v.005h9.19l10.003-17.827 6.383 11.372h-11.76l3.58 6.456H38.38L22.52 17.06zM65 45.316H52.207c-4.948 0-9.168-1.38-12.664-4.137-3.496-2.756-5.247-6.086-5.247-9.99 0-3.899 1.745-7.23 5.247-9.991 3.496-2.756 7.721-4.137 12.664-4.137H65v6.461H52.207c-2.695 0-4.988.745-6.886 2.24-1.892 1.494-2.84 3.301-2.84 5.427 0 2.125.948 3.938 2.84 5.427 1.893 1.494 4.186 2.239 6.886 2.239H65v6.461z" fill="#fff"/></svg>