<svg width="45" height="42" fill="none" xmlns="http://www.w3.org/2000/svg"><path d="M24.295 41.285c11.4 0 20.643-9.242 20.643-20.642C44.938 9.242 35.696 0 24.295 0 12.895 0 3.652 9.242 3.652 20.643c0 11.4 9.242 20.642 20.643 20.642z" fill="#19202A"/><path d="M15.59 11.27h-4.512c-1.552 2.784-3.128 5.56-4.704 8.336C4.27 23.313 2.154 27.016 0 30.704v.004h6.362l6.925-12.267 4.419 7.825H9.565l2.479 4.442H26.57L15.59 11.27zM45 30.712h-8.857c-3.426 0-6.347-.95-8.767-2.847-2.42-1.896-3.633-4.188-3.633-6.874 0-2.683 1.209-4.974 3.633-6.875 2.42-1.896 5.345-2.846 8.767-2.846H45v4.446h-8.857c-1.865 0-3.453.512-4.767 1.54-1.31 1.029-1.967 2.272-1.967 3.735 0 1.462.657 2.71 1.967 3.734 1.31 1.028 2.898 1.54 4.767 1.54H45v4.447z" fill="#fff"/></svg>