<svg width="349" height="39" fill="none" xmlns="http://www.w3.org/2000/svg"><g clip-path="url(#clip0)"><path fill-rule="evenodd" clip-rule="evenodd" d="M326 19.6l3.61-5h6.65c.63 0 1.17 0 1.63.06-.27-.35-.58-.78-.93-1.31-.35-.53-.7-1-1-1.49l-3.46-5.1-9.1 12.84h-7.07l12.38-17.44a7 7 0 011.53-1.5 4.47 4.47 0 014.61 0 5.932 5.932 0 011.54 1.54l12.07 17.4H326zm-8.92-14.27l3.87-5H299l-3.86 5h9.06V19.6h6V5.33h6.88zm-24.95 5.15a6.002 6.002 0 01-1.86 2.23 9.001 9.001 0 01-3 1.44c-1.301.365-2.649.54-4 .52h-10.1v4.93h-5.95V9.74h16.63a3.419 3.419 0 002.15-.6 1.998 1.998 0 00.76-1.62 1.924 1.924 0 00-.76-1.6 3.48 3.48 0 00-2.15-.59h-16.63l3.95-5h12.13a13.63 13.63 0 014 .53c1.084.3 2.102.802 3 1.48a6.497 6.497 0 011.84 2.28c.434.918.653 1.923.64 2.94a6.554 6.554 0 01-.64 2.93l-.01-.01zm-35.42-3.06a3.22 3.22 0 00-1.4-1.5 7.249 7.249 0 00-2.53-.72 38.3 38.3 0 00-7.62 0 7.249 7.249 0 00-2.53.72 3.22 3.22 0 00-1.4 1.5 6.237 6.237 0 00-.43 2.52 6.25 6.25 0 00.43 2.53c.293.64.784 1.169 1.4 1.51a6.838 6.838 0 002.53.73 31.69 31.69 0 003.81.19 31.69 31.69 0 003.81-.19 6.838 6.838 0 002.53-.73 3.291 3.291 0 001.4-1.51 6.25 6.25 0 00.43-2.53 6.237 6.237 0 00-.43-2.52zm2.86 10.1c-2.347 1.6-5.88 2.4-10.6 2.4s-8.257-.8-10.61-2.4c-2.34-1.587-3.51-4.114-3.51-7.58 0-3.44 1.18-5.95 3.53-7.55C240.73.79 244.26 0 249 0c4.74 0 8.22.8 10.58 2.39 2.36 1.59 3.54 4.11 3.54 7.55 0 3.44-1.17 6-3.52 7.58h-.03zM231.36 5.33l3.87-5h-21.94l-3.87 5V19.6h6.25V5.34h9.5V19.6h6.22V5.33h-.03zm-36.9 0a7.07 7.07 0 00-2.25.35 5.57 5.57 0 00-1.79 1 4.61 4.61 0 00-1.18 1.49 4.148 4.148 0 00-.44 1.9 4.107 4.107 0 001.61 3.34 5.498 5.498 0 001.8.94 7.37 7.37 0 002.25.33H208l-3.84 5h-9.7a14.003 14.003 0 01-4.65-.75 11.64 11.64 0 01-3.68-2.06 9.61 9.61 0 01-2.42-3.11 8.78 8.78 0 01-.88-3.91 8.373 8.373 0 01.88-3.85 9.085 9.085 0 012.42-3 11.22 11.22 0 013.68-2 15.422 15.422 0 014.65-.67H208l-3.84 5h-9.7zm-57.7 3.84a4.51 4.51 0 002.34.57h16.8v9.86h-6v-5.1h-9.18l-4.3 5.1h-8l3.58-3.75c.67-.67 1.21-1.2 1.61-1.58.349-.338.716-.655 1.1-.95a6.48 6.48 0 01-2.12-.8 5.716 5.716 0 01-1.59-1.37 5.9 5.9 0 01-1-1.81 6.302 6.302 0 01-.35-2.13 5.747 5.747 0 01.94-3.41A6.878 6.878 0 01133 1.7c1-.534 2.081-.899 3.2-1.08a20.349 20.349 0 013.41-.3H152l3.9 5h-16.8a4.499 4.499 0 00-2.43.56 1.9 1.9 0 00-.86 1.69 1.794 1.794 0 00.95 1.59v.01zM118.4 19.6V8.27l-11.84 10.61a3.695 3.695 0 01-1.25.85 3.67 3.67 0 01-2.39 0 2.707 2.707 0 01-1-.64 3.262 3.262 0 01-.72-1.14 4.31 4.31 0 01-.28-1.64V.32h5.46v11.32L118.17 1c.364-.368.8-.657 1.28-.85a3.391 3.391 0 011.11-.15c.418 0 .833.067 1.23.2.375.138.716.357 1 .64.34.321.601.719.76 1.16a4.31 4.31 0 01.28 1.64v16l-5.43-.04zm-26.73 0l-1.82-6.72a144.601 144.601 0 01-.78-2.88c-.22-.82-.4-1.63-.55-2.42-.33.67-.69 1.42-1.1 2.23-.41.81-.93 1.85-1.59 3.1l-2.59 4.84a5.61 5.61 0 01-.77 1.14c-.23.254-.496.473-.79.65a2.43 2.43 0 01-.87.3 6.367 6.367 0 01-2 0 2.43 2.43 0 01-.87-.3 3.283 3.283 0 01-.79-.65 5.232 5.232 0 01-.77-1.14l-2.6-4.87-.92-1.75c-.27-.52-.51-1-.73-1.4-.22-.4-.42-.8-.58-1.14-.16-.34-.33-.68-.48-1-.15.77-.34 1.57-.55 2.41-.21.84-.46 1.8-.75 2.89l-1.84 6.71h-5.86l5-17c.2-.8.67-1.507 1.33-2a3.46 3.46 0 012-.65 3.32 3.32 0 012 .55A4.21 4.21 0 0173.72 2l3.08 5.49 1.11 2c.32.56.59 1.07.84 1.51.25.44.45.85.63 1.21l.53 1.07c.16-.354.33-.687.51-1 .18-.36.39-.76.63-1.21.24-.45.52-1 .84-1.52l1.11-2 3.09-5.47A4.55 4.55 0 0187.41.56a3.32 3.32 0 012-.56 3.44 3.44 0 012 .65 3.6 3.6 0 011.31 2l4.88 17-5.93-.05zm-31.39-9.12a6.002 6.002 0 01-1.86 2.23 9.141 9.141 0 01-3 1.44c-1.301.365-2.649.54-4 .52H41.31v4.93h-5.94V9.74H52a3.42 3.42 0 002.15-.6 2 2 0 00.76-1.62 1.92 1.92 0 00-.76-1.6A3.48 3.48 0 0052 5.33H35.37l4-5h12.08a13.67 13.67 0 014 .53 8.89 8.89 0 013 1.48 6.41 6.41 0 011.85 2.28 6.67 6.67 0 01.64 2.94 6.56 6.56 0 01-.64 2.93l-.02-.01zM9.67 19.6l3.61-5h6.65c.63 0 1.17 0 1.64.06-.27-.35-.59-.78-.94-1.31s-.7-1-1-1.49L16.14 6.8 7.07 19.6H0L12.39 2.16a6.62 6.62 0 011.53-1.5A3.89 3.89 0 0116.25 0a4 4 0 012.27.62 6 6 0 011.55 1.54L32.13 19.6H9.67z" fill="#19202A"/><path fill-rule="evenodd" clip-rule="evenodd" d="M.34 38.57h7.31c2.08 0 3.12-.38 3.68-1.37a6.689 6.689 0 00.67-3.34 6.66 6.66 0 00-.62-3.32c-.56-1-1.6-1.37-3.68-1.37H.34v9.4zm1.12-.94v-7.52h6.19c1.44 0 2.24.27 2.62.85a5.92 5.92 0 01.51 3 5.538 5.538 0 01-.48 2.79c-.38.61-1.24.92-2.56.92l-6.28-.04zm141.291.929l.29-1-1.89-1a7.3 7.3 0 00.19-1.78v-.82h-1.24v1.13c.01.3-.02.599-.09.89l-6.17-3.27c-1.21-.65-1.4-.84-1.4-1.52s.24-1 .78-1.07a24.991 24.991 0 012.94-.06c2.8 0 2.92.08 2.92 1.81h1.2v-.2c0-1.15-.2-1.74-.73-2.12-.53-.38-1.13-.52-5.12-.52a4.33 4.33 0 00-2.33.34 1.864 1.864 0 00-.83 1.76c0 .85.26 1.25 1.15 1.81-1.77.07-2.37.74-2.37 2.64 0 1.43.41 2.2 1.35 2.61.63.26 1.85.34 5.27.34 2.75 0 3.6-.21 4.08-1l2 1v.03zm-3.05-1.56c-.28.46-1.37.64-4 .64-2.28 0-3.52-.14-4-.46s-.47-.65-.47-1.41c-.075-.596.067-1.2.4-1.7a2.218 2.218 0 011.54-.49l6.53 3.42z" fill="#1D1D1B"/><path d="M161.319 29.17h-1.13v9.4h1.13v-9.4z" fill="#1D1D1B"/><path fill-rule="evenodd" clip-rule="evenodd" d="M23.08 38.57h9.43v-.94H24.2v-3.48h7.94v-.89H24.2v-3.15h8.24v-.94h-9.36v9.4zM43 35.64v.65a2 2 0 001.31 2c1.348.319 2.737.437 4.12.35 1.32.088 2.646-.03 3.93-.35a2.26 2.26 0 001.37-2.43c0-1.17-.31-1.8-1.07-2.17-.76-.37-1.33-.38-4.32-.39-2.66 0-3.08 0-3.58-.27s-.58-.55-.58-1.2c0-1.51.72-1.8 4.43-1.8 1.9 0 2.88.14 3.31.48.43.34.44.57.46 1.32h1.1c-.05-1.31-.26-1.8-1-2.23-.74-.43-1.76-.56-3.93-.56a15.178 15.178 0 00-4 .35c-1 .36-1.55 1.16-1.55 2.61a1.93 1.93 0 00.79 1.83c.58.38 1.31.51 3 .52 4.2 0 4.25 0 4.87.2.62.2.88.54.88 1.33 0 1.56-.66 1.84-4.34 1.84a12.664 12.664 0 01-3.2-.3c-.6-.2-.8-.58-.8-1.53v-.25H43z" fill="#1D1D1B"/><path d="M65.92 29.17h-1.13v9.4h1.13v-9.4z" fill="#1D1D1B"/><path fill-rule="evenodd" clip-rule="evenodd" d="M82.76 33.93v1h5c0 1.48-.11 1.83-.47 2.21-.47.54-1 .59-4.63.59-2.82 0-3.51-.09-4-.57-.49-.48-.5-1.09-.5-3.23 0-2.37.13-3 .66-3.4.53-.4 1.3-.42 5-.42 2.56 0 3 .05 3.42.49.27.24.33.49.36 1.38h1.11a2.52 2.52 0 00-1-2.3c-.67-.46-1.44-.56-4.33-.56-4.3 0-5 .1-5.69.86-.69.76-.75 1.37-.75 4s.14 3.3.75 3.93c.61.63 1.44.86 5.36.86 2.86 0 3.72-.07 4.32-.32a2.39 2.39 0 001.34-2.29c.068-.709.088-1.42.06-2.13l-6.01-.1zm17.21 4.64h1.131v-8.6l8.88 8.6h1.82v-9.4h-1.13v8.6l-8.88-8.6h-1.82v9.4zm72.77 0h1.12v-8.6l8.89 8.6h1.81v-9.4h-1.12v8.6l-8.89-8.6h-1.81v9.4zm23.25 0h1.12v-8.6l8.88 8.6h1.82v-9.4h-1.13v8.6l-8.88-8.6h-1.81v9.4zm29.01-9.5c-3.92 0-4.63.11-5.35.86-.72.75-.75 1.37-.75 4s.14 3.3.75 3.93c.61.63 1.43.86 5.3.86s4.58-.11 5.3-.86c.72-.75.74-1.37.74-4s-.14-3.3-.74-3.93c-.6-.63-1.45-.86-5.25-.86zm0 1c3.1 0 3.89.1 4.33.58.44.48.49 1.08.49 3.24s-.09 2.82-.49 3.23c-.4.41-1.07.57-4.38.57-3.31 0-3.91-.07-4.39-.57-.48-.5-.49-1.09-.49-3.23 0-2.14.1-2.84.49-3.24.39-.4 1.21-.59 4.44-.59v.01zm15.711-.9l5.2 9.4h1.58l5.2-9.4h-1.26l-4.73 8.57-4.73-8.57h-1.26zm29.29 7.29l1.24 2.11h1.24l-5.54-9.4h-1.59l-5.54 9.4h1.25l1.24-2.11h7.7zm-.54-.89h-6.62l3.3-5.57 3.32 5.57zm15.008 3h1.13v-8.46h4.76v-.94h-10.67v.94h4.78v8.46z" fill="#1D1D1B"/><path d="M301.909 29.17h-1.13v9.4h1.13v-9.4z" fill="#1D1D1B"/><path fill-rule="evenodd" clip-rule="evenodd" d="M319.151 29.07c-3.92 0-4.64.11-5.36.86-.72.75-.74 1.37-.74 4s.14 3.3.74 3.93c.6.63 1.44.86 5.31.86 3.87 0 4.58-.11 5.3-.86.72-.75.74-1.37.74-4s-.14-3.3-.74-3.93c-.6-.63-1.46-.86-5.25-.86zm0 1c3.1 0 3.89.1 4.33.58.44.48.49 1.08.49 3.24s-.1 2.82-.49 3.23c-.39.41-1.07.57-4.38.57-3.31 0-3.91-.07-4.39-.57-.48-.5-.49-1.09-.49-3.23 0-2.14.1-2.84.49-3.24.39-.4 1.2-.59 4.44-.59v.01zm17.128 8.5h1.13v-8.6l8.88 8.6h1.82v-9.4h-1.13v8.6l-8.88-8.6h-1.82v9.4z" fill="#1D1D1B"/></g><defs><clipPath id="clip0"><path fill="#fff" d="M0 0h348.46v38.67H0z"/></clipPath></defs></svg>