<svg width="65" height="61" viewBox="0 0 65 61" fill="none" xmlns="http://www.w3.org/2000/svg">
<path d="M35.0927 60.6826C51.5604 60.6826 64.91 47.2512 64.91 30.6826C64.91 14.1141 51.5604 0.682617 35.0927 0.682617C18.6251 0.682617 5.27539 14.1141 5.27539 30.6826C5.27539 47.2512 18.6251 60.6826 35.0927 60.6826Z" fill="#19202A"/>
<path d="M22.5197 17.0608H16.0016C13.7592 21.107 11.483 25.1419 9.20671 29.1767C6.16793 34.5641 3.11221 39.9458 0 45.3048V45.3105H9.18977L19.1929 27.4832L25.5755 38.8547H13.8157L17.3967 45.3105H38.3801L22.5197 17.0608Z" fill="white"/>
<path d="M65 45.3161H52.2066C47.2587 45.3161 43.0394 43.9352 39.5432 41.179C36.0469 38.4228 34.2959 35.0926 34.2959 31.1885C34.2959 27.29 36.0412 23.9598 39.5432 21.1979C43.0394 18.4417 47.2644 17.0608 52.2066 17.0608H65V23.5222H52.2066C49.5124 23.5222 47.2192 24.2667 45.3214 25.7613C43.4292 27.2559 42.4803 29.0631 42.4803 31.1885C42.4803 33.3139 43.4292 35.1267 45.3214 36.6156C47.2135 38.1102 49.5067 38.8547 52.2066 38.8547H65V45.3161Z" fill="white"/>
</svg>
