<svg width="349" height="39" viewBox="0 0 349 39" fill="none" xmlns="http://www.w3.org/2000/svg">
<g clip-path="url(#clip0)">
<path fill-rule="evenodd" clip-rule="evenodd" d="M326 19.5994L329.61 14.5994H336.26C336.89 14.5994 337.43 14.5994 337.89 14.6594C337.62 14.3094 337.31 13.8794 336.96 13.3494C336.61 12.8194 336.26 12.3494 335.96 11.8594L332.5 6.75935L323.4 19.5994H316.33L328.71 2.15935C329.14 1.5838 329.656 1.07788 330.24 0.659354C330.936 0.240524 331.733 0.0192203 332.545 0.0192203C333.357 0.0192203 334.154 0.240524 334.85 0.659354C335.454 1.07321 335.976 1.59535 336.39 2.19935L348.46 19.5994H326ZM317.08 5.32935L320.95 0.329354H299L295.14 5.32935H304.2V19.5994H310.2V5.32935H317.08ZM292.13 10.4794C291.702 11.3638 291.063 12.1295 290.27 12.7094C289.368 13.3717 288.351 13.86 287.27 14.1494C285.969 14.5149 284.621 14.69 283.27 14.6694H273.17V19.5994H267.22V9.73935H283.85C284.614 9.78544 285.371 9.57418 286 9.13935C286.244 8.94688 286.439 8.70028 286.571 8.41909C286.703 8.1379 286.768 7.82985 286.76 7.51935C286.771 7.21123 286.708 6.90497 286.576 6.62647C286.443 6.34798 286.246 6.10543 286 5.91935C285.367 5.49223 284.612 5.28492 283.85 5.32935H267.22L271.17 0.329354H283.3C284.652 0.307185 286 0.485797 287.3 0.859354C288.384 1.15953 289.402 1.66166 290.3 2.33935C291.079 2.94917 291.708 3.72904 292.14 4.61935C292.574 5.53782 292.793 6.5434 292.78 7.55935C292.796 8.57234 292.577 9.57521 292.14 10.4894L292.13 10.4794ZM256.71 7.41935C256.419 6.78007 255.928 6.25332 255.31 5.91935C254.518 5.52709 253.66 5.28308 252.78 5.19935C250.246 4.94605 247.694 4.94605 245.16 5.19935C244.28 5.28308 243.422 5.52709 242.63 5.91935C242.012 6.25332 241.521 6.78007 241.23 7.41935C240.914 8.22068 240.768 9.07868 240.8 9.93935C240.767 10.8033 240.913 11.6648 241.23 12.4694C241.523 13.1095 242.014 13.6388 242.63 13.9794C243.418 14.3843 244.277 14.6322 245.16 14.7094C246.425 14.8495 247.697 14.913 248.97 14.8994C250.243 14.913 251.515 14.8495 252.78 14.7094C253.663 14.6322 254.522 14.3843 255.31 13.9794C255.926 13.6388 256.417 13.1095 256.71 12.4694C257.027 11.6648 257.173 10.8033 257.14 9.93935C257.172 9.07868 257.026 8.22068 256.71 7.41935V7.41935ZM259.57 17.5194C257.223 19.1194 253.69 19.9194 248.97 19.9194C244.25 19.9194 240.713 19.1194 238.36 17.5194C236.02 15.9327 234.85 13.406 234.85 9.93935C234.85 6.49935 236.03 3.98935 238.38 2.38935C240.73 0.789354 244.26 -0.000645921 249 -0.000645921C253.74 -0.000645921 257.22 0.799354 259.58 2.38935C261.94 3.97935 263.12 6.49935 263.12 9.93935C263.12 13.3794 261.95 15.9394 259.6 17.5194H259.57ZM231.36 5.32935L235.23 0.329354H213.29L209.42 5.32935V19.5994H215.67V5.33935H225.17V19.5994H231.39V5.32935H231.36ZM194.46 5.32935C193.696 5.32368 192.936 5.44188 192.21 5.67935C191.557 5.89926 190.95 6.23832 190.42 6.67935C189.927 7.08866 189.526 7.59612 189.24 8.16935C188.944 8.75874 188.794 9.41006 188.8 10.0694C188.788 10.7133 188.927 11.3511 189.207 11.9312C189.487 12.5114 189.899 13.0177 190.41 13.4094C190.946 13.8317 191.557 14.1505 192.21 14.3494C192.938 14.5751 193.697 14.6864 194.46 14.6794H208L204.16 19.6794H194.46C192.879 19.6938 191.307 19.4402 189.81 18.9294C188.468 18.4725 187.221 17.7744 186.13 16.8694C185.117 16.0108 184.293 14.9519 183.71 13.7594C183.119 12.5412 182.818 11.2031 182.83 9.84935C182.812 8.51424 183.114 7.19425 183.71 5.99935C184.293 4.83769 185.118 3.81465 186.13 2.99935C187.22 2.10761 188.469 1.42913 189.81 0.999354C191.317 0.539826 192.885 0.313871 194.46 0.329354H208L204.16 5.32935H194.46ZM136.76 9.16935C137.474 9.56796 138.283 9.76498 139.1 9.73935H155.9V19.5994H149.9V14.4994H140.72L136.42 19.5994H128.42L132 15.8494C132.67 15.1794 133.21 14.6494 133.61 14.2694C133.959 13.9325 134.326 13.6153 134.71 13.3194C133.962 13.1793 133.244 12.9085 132.59 12.5194C131.98 12.1649 131.441 11.7003 131 11.1494C130.563 10.6097 130.224 9.99694 130 9.33935C129.762 8.65478 129.643 7.9342 129.65 7.20935C129.597 6.00215 129.926 4.80901 130.59 3.79935C131.217 2.91985 132.043 2.20044 133 1.69935C134 1.16624 135.081 0.801365 136.2 0.619354C137.326 0.42376 138.467 0.323405 139.61 0.319354H152L155.9 5.31935H139.1C138.253 5.27338 137.411 5.4675 136.67 5.87935C136.391 6.06106 136.165 6.31281 136.014 6.6094C135.863 6.90599 135.793 7.23702 135.81 7.56935C135.809 7.89559 135.897 8.21586 136.065 8.49592C136.232 8.77598 136.472 9.0053 136.76 9.15935V9.16935ZM118.4 19.5994V8.26935L106.56 18.8794C106.206 19.2459 105.781 19.5353 105.31 19.7294C104.536 19.996 103.694 19.996 102.92 19.7294C102.543 19.5926 102.202 19.374 101.92 19.0894C101.603 18.7635 101.358 18.3752 101.2 17.9494C101.001 17.4261 100.906 16.869 100.92 16.3094V0.319354H106.38V11.6394L118.17 0.999354C118.534 0.631816 118.97 0.342571 119.45 0.149354C119.809 0.0385132 120.184 -0.0121704 120.56 -0.000645921C120.978 -0.00086113 121.393 0.066681 121.79 0.199354C122.165 0.338471 122.506 0.556746 122.79 0.839354C123.13 1.16136 123.391 1.55864 123.55 1.99935C123.749 2.52258 123.844 3.07967 123.83 3.63935V19.6394L118.4 19.5994ZM91.67 19.5994L89.85 12.8794C89.5433 11.786 89.2833 10.826 89.07 9.99935C88.85 9.17935 88.67 8.36935 88.52 7.57935C88.19 8.24935 87.83 8.99935 87.42 9.80935C87.01 10.6194 86.49 11.6594 85.83 12.9094L83.24 17.7494C83.0311 18.1595 82.7725 18.5424 82.47 18.8894C82.2401 19.1438 81.9739 19.3628 81.68 19.5394C81.4118 19.6939 81.1165 19.7957 80.81 19.8394C80.4793 19.8923 80.1449 19.9191 79.81 19.9194C79.4751 19.9194 79.1407 19.8927 78.81 19.8394C78.5035 19.7957 78.2082 19.6939 77.94 19.5394C77.6443 19.3653 77.3777 19.146 77.15 18.8894C76.8443 18.5449 76.5853 18.1616 76.38 17.7494L73.78 12.8794L72.86 11.1294C72.59 10.6094 72.35 10.1294 72.13 9.72935C71.91 9.32935 71.71 8.92935 71.55 8.58935C71.39 8.24935 71.22 7.90935 71.07 7.58935C70.92 8.35935 70.73 9.15935 70.52 9.99935C70.31 10.8394 70.06 11.7994 69.77 12.8894L67.93 19.5994H62.07L67.07 2.59935C67.2698 1.79942 67.7396 1.09297 68.4 0.599354C68.9831 0.180429 69.682 -0.0467327 70.4 -0.0506459C71.1083 -0.0856204 71.8092 0.107123 72.4 0.499354C72.954 0.886183 73.4067 1.40067 73.72 1.99935L76.8 7.48935L77.91 9.48935C78.23 10.0494 78.5 10.5594 78.75 10.9994C79 11.4394 79.2 11.8494 79.38 12.2094L79.91 13.2794C80.07 12.926 80.24 12.5927 80.42 12.2794C80.6 11.9194 80.81 11.5194 81.05 11.0694C81.29 10.6194 81.57 10.0694 81.89 9.54935L83 7.54935L86.09 2.07935C86.411 1.48048 86.862 0.961105 87.41 0.559354C87.9996 0.163599 88.7006 -0.0326755 89.41 -0.000645921C90.1282 0.00193613 90.8275 0.229227 91.41 0.649354C92.0618 1.14732 92.5239 1.85292 92.72 2.64935L97.6 19.6494L91.67 19.5994ZM60.28 10.4794C59.8519 11.3638 59.2132 12.1295 58.42 12.7094C57.5165 13.3689 56.4997 13.857 55.42 14.1494C54.1188 14.5149 52.7714 14.69 51.42 14.6694H41.31V19.5994H35.37V9.73935H52C52.7636 9.78544 53.5206 9.57418 54.15 9.13935C54.3938 8.94688 54.5894 8.70028 54.7213 8.41909C54.8532 8.1379 54.9178 7.82985 54.91 7.51935C54.9211 7.21123 54.8578 6.90497 54.7255 6.62647C54.5932 6.34798 54.3958 6.10543 54.15 5.91935C53.5174 5.49223 52.762 5.28492 52 5.32935H35.37L39.37 0.329354H51.45C52.8022 0.307185 54.1502 0.485797 55.45 0.859354C56.5346 1.1584 57.5527 1.66063 58.45 2.33935C59.2348 2.94598 59.868 3.72645 60.3 4.61935C60.7345 5.53782 60.9534 6.5434 60.94 7.55935C60.9558 8.57234 60.7367 9.57521 60.3 10.4894L60.28 10.4794ZM9.67 19.5994L13.28 14.5994H19.93C20.56 14.5994 21.1 14.5994 21.57 14.6594C21.3 14.3094 20.98 13.8794 20.63 13.3494C20.28 12.8194 19.93 12.3494 19.63 11.8594L16.14 6.79935L7.07 19.5994H0L12.39 2.15935C12.8152 1.57959 13.3319 1.07296 13.92 0.659354C14.6067 0.197048 15.4229 -0.0341598 16.25 -0.000645921C17.0517 -0.0262569 17.8426 0.189759 18.52 0.619354C19.1266 1.03349 19.6519 1.55548 20.07 2.15935L32.13 19.5994H9.67Z" fill="#19202A"/>
<path fill-rule="evenodd" clip-rule="evenodd" d="M0.339844 38.5699H7.64984C9.72984 38.5699 10.7698 38.1899 11.3298 37.1999C11.8376 36.1631 12.0685 35.0124 11.9998 33.8599C12.0819 32.7184 11.8683 31.5749 11.3798 30.5399C10.8198 29.5399 9.77984 29.1699 7.69984 29.1699H0.339844V38.5699ZM1.45984 37.6299V30.1099H7.64984C9.08984 30.1099 9.88984 30.3799 10.2698 30.9599C10.6983 31.8984 10.8742 32.9326 10.7798 33.9599C10.8642 34.9158 10.6988 35.8772 10.2998 36.7499C9.91984 37.3599 9.05984 37.6699 7.73984 37.6699L1.45984 37.6299Z" fill="#1D1D1B"/>
<path fill-rule="evenodd" clip-rule="evenodd" d="M142.751 38.559L143.041 37.559L141.151 36.559C141.287 35.9758 141.351 35.3779 141.341 34.779C141.341 34.499 141.341 34.279 141.341 33.959H140.101C140.101 34.499 140.101 34.849 140.101 35.089C140.111 35.3884 140.081 35.6878 140.011 35.979L133.841 32.709C132.631 32.059 132.441 31.869 132.441 31.189C132.441 30.509 132.681 30.189 133.221 30.119C134.199 30.0413 135.18 30.0213 136.161 30.059C138.961 30.059 139.081 30.139 139.081 31.869H140.281V31.669C140.281 30.519 140.081 29.929 139.551 29.549C139.021 29.169 138.421 29.029 134.431 29.029C133.638 28.9249 132.831 29.0426 132.101 29.369C131.814 29.5579 131.585 29.8221 131.439 30.1325C131.292 30.443 131.234 30.7877 131.271 31.129C131.271 31.979 131.531 32.379 132.421 32.939C130.651 33.009 130.051 33.679 130.051 35.579C130.051 37.009 130.461 37.779 131.401 38.189C132.031 38.449 133.251 38.529 136.671 38.529C139.421 38.529 140.271 38.319 140.751 37.529L142.751 38.529V38.559ZM139.701 36.999C139.421 37.459 138.331 37.639 135.701 37.639C133.421 37.639 132.181 37.499 131.701 37.179C131.221 36.859 131.231 36.529 131.231 35.769C131.156 35.1727 131.298 34.5695 131.631 34.069C132.064 33.718 132.614 33.543 133.171 33.579L139.701 36.999Z" fill="#1D1D1B"/>
<path d="M161.319 29.1699H160.189V38.5699H161.319V29.1699Z" fill="#1D1D1B"/>
<path fill-rule="evenodd" clip-rule="evenodd" d="M23.0801 38.5699H32.5101V37.6299H24.2001V34.1499H32.1401V33.2599H24.2001V30.1099H32.4401V29.1699H23.0801V38.5699Z" fill="#1D1D1B"/>
<path fill-rule="evenodd" clip-rule="evenodd" d="M43 35.6391V36.2891C42.9738 36.719 43.0872 37.146 43.3233 37.5063C43.5593 37.8667 43.9054 38.1412 44.31 38.2891C45.6584 38.609 47.0469 38.727 48.43 38.6391C49.7502 38.728 51.0763 38.6099 52.36 38.2891C52.8273 38.0957 53.2163 37.7512 53.4647 37.3107C53.713 36.8701 53.8065 36.359 53.73 35.8591C53.73 34.6891 53.42 34.0591 52.66 33.6891C51.9 33.3191 51.33 33.3091 48.34 33.2991C45.68 33.2991 45.26 33.2991 44.76 33.0291C44.26 32.7591 44.18 32.4791 44.18 31.8291C44.18 30.3191 44.9 30.0291 48.61 30.0291C50.51 30.0291 51.49 30.1691 51.92 30.5091C52.35 30.8491 52.36 31.0791 52.38 31.8291H53.48C53.43 30.5191 53.22 30.0291 52.48 29.5991C51.74 29.1691 50.72 29.0391 48.55 29.0391C47.2071 28.9781 45.862 29.0958 44.55 29.3891C43.55 29.7491 43 30.5491 43 31.9991C42.9527 32.3471 43.0013 32.7015 43.1405 33.0239C43.2797 33.3464 43.5043 33.6248 43.79 33.8291C44.37 34.2091 45.1 34.3391 46.79 34.3491C50.99 34.3491 51.04 34.3491 51.66 34.5491C52.28 34.7491 52.54 35.0891 52.54 35.8791C52.54 37.4391 51.88 37.7191 48.2 37.7191C47.1249 37.7554 46.0496 37.6546 45 37.4191C44.4 37.2191 44.2 36.8391 44.2 35.8891V35.6391H43Z" fill="#1D1D1B"/>
<path d="M65.9191 29.1699H64.7891V38.5699H65.9191V29.1699Z" fill="#1D1D1B"/>
<path fill-rule="evenodd" clip-rule="evenodd" d="M82.7595 33.9291V34.9291H87.7595C87.7595 36.4091 87.6495 36.7591 87.2895 37.1391C86.8195 37.6791 86.2895 37.7291 82.6595 37.7291C79.8395 37.7291 79.1495 37.6391 78.6595 37.1591C78.1695 36.6791 78.1595 36.0691 78.1595 33.9291C78.1595 31.5591 78.2895 30.9291 78.8195 30.5291C79.3495 30.1291 80.1195 30.1091 83.8195 30.1091C86.3795 30.1091 86.8194 30.1591 87.2394 30.5991C87.5094 30.8391 87.5694 31.0891 87.5994 31.9791H88.7094C88.7581 31.5418 88.6913 31.0994 88.5159 30.6959C88.3405 30.2924 88.0624 29.9418 87.7094 29.6791C87.0394 29.2191 86.2694 29.1191 83.3794 29.1191C79.0794 29.1191 78.3795 29.2191 77.6895 29.9791C76.9995 30.7391 76.9395 31.3491 76.9395 33.9791C76.9395 36.6091 77.0795 37.2791 77.6895 37.9091C78.2995 38.5391 79.1295 38.7691 83.0495 38.7691C85.9095 38.7691 86.7695 38.6991 87.3695 38.4491C87.7941 38.2425 88.1479 37.9147 88.3864 37.5072C88.6249 37.0996 88.7373 36.6305 88.7094 36.1591C88.7782 35.4514 88.7982 34.7397 88.7694 34.0291L82.7595 33.9291Z" fill="#1D1D1B"/>
<path fill-rule="evenodd" clip-rule="evenodd" d="M99.9707 38.5699H101.101V29.9699L109.981 38.5699H111.801V29.1699H110.671V37.7699L101.791 29.1699H99.9707V38.5699Z" fill="#1D1D1B"/>
<path fill-rule="evenodd" clip-rule="evenodd" d="M172.74 38.5699H173.86V29.9699L182.75 38.5699H184.56V29.1699H183.44V37.7699L174.55 29.1699H172.74V38.5699Z" fill="#1D1D1B"/>
<path fill-rule="evenodd" clip-rule="evenodd" d="M195.99 38.5699H197.11V29.9699L205.99 38.5699H207.81V29.1699H206.68V37.7699L197.8 29.1699H195.99V38.5699Z" fill="#1D1D1B"/>
<path fill-rule="evenodd" clip-rule="evenodd" d="M225 29.0703C221.08 29.0703 220.37 29.1803 219.65 29.9303C218.93 30.6803 218.9 31.3003 218.9 33.9303C218.9 36.5603 219.04 37.2303 219.65 37.8603C220.26 38.4903 221.08 38.7203 224.95 38.7203C228.82 38.7203 229.53 38.6103 230.25 37.8603C230.97 37.1103 230.99 36.4903 230.99 33.8603C230.99 31.2303 230.85 30.5603 230.25 29.9303C229.65 29.3003 228.8 29.0703 225 29.0703V29.0703ZM225 30.0703C228.1 30.0703 228.89 30.1703 229.33 30.6503C229.77 31.1303 229.82 31.7303 229.82 33.8903C229.82 36.0503 229.73 36.7103 229.33 37.1203C228.93 37.5303 228.26 37.6903 224.95 37.6903C221.64 37.6903 221.04 37.6203 220.56 37.1203C220.08 36.6203 220.07 36.0303 220.07 33.8903C220.07 31.7503 220.17 31.0503 220.56 30.6503C220.95 30.2503 221.77 30.0603 225 30.0603V30.0703Z" fill="#1D1D1B"/>
<path fill-rule="evenodd" clip-rule="evenodd" d="M240.711 29.1699L245.911 38.5699H247.491L252.691 29.1699H251.431L246.701 37.7399L241.971 29.1699H240.711Z" fill="#1D1D1B"/>
<path fill-rule="evenodd" clip-rule="evenodd" d="M270.001 36.4599L271.241 38.5699H272.481L266.941 29.1699H265.351L259.811 38.5699H261.061L262.301 36.4599H270.001ZM269.461 35.5699H262.841L266.141 29.9999L269.461 35.5699Z" fill="#1D1D1B"/>
<path fill-rule="evenodd" clip-rule="evenodd" d="M284.469 38.5699H285.599V30.1099H290.359V29.1699H279.689V30.1099H284.469V38.5699Z" fill="#1D1D1B"/>
<path d="M301.909 29.1699H300.779V38.5699H301.909V29.1699Z" fill="#1D1D1B"/>
<path fill-rule="evenodd" clip-rule="evenodd" d="M319.151 29.0703C315.231 29.0703 314.511 29.1803 313.791 29.9303C313.071 30.6803 313.051 31.3003 313.051 33.9303C313.051 36.5603 313.191 37.2303 313.791 37.8603C314.391 38.4903 315.231 38.7203 319.101 38.7203C322.971 38.7203 323.681 38.6103 324.401 37.8603C325.121 37.1103 325.141 36.4903 325.141 33.8603C325.141 31.2303 325.001 30.5603 324.401 29.9303C323.801 29.3003 322.941 29.0703 319.151 29.0703ZM319.151 30.0703C322.251 30.0703 323.041 30.1703 323.481 30.6503C323.921 31.1303 323.971 31.7303 323.971 33.8903C323.971 36.0503 323.871 36.7103 323.481 37.1203C323.091 37.5303 322.411 37.6903 319.101 37.6903C315.791 37.6903 315.191 37.6203 314.711 37.1203C314.231 36.6203 314.221 36.0303 314.221 33.8903C314.221 31.7503 314.321 31.0503 314.711 30.6503C315.101 30.2503 315.911 30.0603 319.151 30.0603V30.0703Z" fill="#1D1D1B"/>
<path fill-rule="evenodd" clip-rule="evenodd" d="M336.279 38.5699H337.409V29.9699L346.289 38.5699H348.109V29.1699H346.979V37.7699L338.099 29.1699H336.279V38.5699Z" fill="#1D1D1B"/>
</g>
<defs>
<clipPath id="clip0">
<rect width="348.46" height="38.67" fill="white"/>
</clipPath>
</defs>
</svg>
