<svg width="45" height="42" viewBox="0 0 45 42" fill="none" xmlns="http://www.w3.org/2000/svg">
<path d="M24.295 41.2852C35.6956 41.2852 44.9376 32.0432 44.9376 20.6426C44.9376 9.24202 35.6956 0 24.295 0C12.8944 0 3.65234 9.24202 3.65234 20.6426C3.65234 32.0432 12.8944 41.2852 24.295 41.2852Z" fill="#19202A"/>
<path d="M15.5905 11.2695H11.078C9.52556 14.0537 7.9497 16.83 6.37384 19.6064C4.27008 23.3133 2.15459 27.0164 0 30.7039V30.7078H6.36211L13.2873 18.4411L17.706 26.2656H9.56466L12.0438 30.7078H26.5707L15.5905 11.2695Z" fill="white"/>
<path d="M44.9997 30.7117H36.1428C32.7174 30.7117 29.7963 29.7615 27.3759 27.865C24.9554 25.9685 23.7432 23.677 23.7432 20.9906C23.7432 18.3081 24.9515 16.0167 27.3759 14.1162C29.7963 12.2197 32.7213 11.2695 36.1428 11.2695H44.9997V15.7156H36.1428C34.2776 15.7156 32.69 16.2278 31.3761 17.2562C30.0662 18.2847 29.4092 19.5281 29.4092 20.9906C29.4092 22.4531 30.0662 23.7005 31.3761 24.725C32.6861 25.7534 34.2737 26.2656 36.1428 26.2656H44.9997V30.7117Z" fill="white"/>
</svg>
