<?xml version="1.0" encoding="utf-8"?><svg viewBox="0 0 40 40" xmlns="http://www.w3.org/2000/svg" xmlns:xlink="http://www.w3.org/1999/xlink"><style>:root>svg{display:none}:root>svg:target{display:block}</style><svg fill="none" viewBox="0 0 40 40" id="arrow-left" xmlns="http://www.w3.org/2000/svg"><path fill="#19202A" fill-opacity=".5" d="M0 0h40v40H0z"/><path d="M31.667 20H8.333M20 31.667L8.333 20 20 8.334" stroke="#fff" stroke-width="4" stroke-linecap="round" stroke-linejoin="round"/></svg><svg fill="none" viewBox="0 0 40 40" id="arrow-right" xmlns="http://www.w3.org/2000/svg"><path fill="#19202A" fill-opacity=".5" d="M40 40H0V0h40z"/><path d="M8.333 20h23.334M20 8.333L31.667 20 20 31.666" stroke="#fff" stroke-width="4" stroke-linecap="round" stroke-linejoin="round"/></svg><svg fill="none" viewBox="0 0 22 22" id="back-btn" xmlns="http://www.w3.org/2000/svg"><path d="M17.417 11H4.583M11 17.416L4.583 11 11 4.583" stroke="#19202A" stroke-width="2" stroke-linecap="round" stroke-linejoin="round"/></svg><svg fill="none" viewBox="0 0 18 18" id="clock" xmlns="http://www.w3.org/2000/svg"><path d="M9 0C4.037 0 0 4.037 0 9s4.037 9 9 9 9-4.037 9-9-4.037-9-9-9zm0 16.2c-3.97 0-7.2-3.23-7.2-7.2S5.03 1.8 9 1.8s7.2 3.23 7.2 7.2-3.23 7.2-7.2 7.2z" fill="#19202A"/><path d="M9.9 4.5H8.1v4.873l2.964 2.963 1.272-1.272L9.9 8.627V4.5z" fill="#19202A"/></svg><svg fill="none" viewBox="0 0 21 25" id="delete" xmlns="http://www.w3.org/2000/svg"><path d="M8.28 0c-.528 0-1.071.193-1.453.586-.38.393-.567.954-.567 1.497v1.042H.202v2.083h1.01v16.667C1.212 23.588 2.58 25 4.24 25h12.115c1.66 0 3.029-1.412 3.029-3.125V5.208h1.01V3.125h-6.058V2.083c0-.543-.187-1.104-.569-1.498-.38-.391-.922-.585-1.45-.585H8.279zm0 2.083h4.038v1.042H8.279V2.083zM3.23 5.208h14.135v16.667c0 .578-.45 1.042-1.01 1.042H4.241c-.56 0-1.01-.464-1.01-1.042V5.208zm2.02 3.125v11.459h2.018V8.333H5.25zm4.038 0v11.459h2.019V8.333h-2.02zm4.038 0v11.459h2.02V8.333h-2.02z" fill="#19202A"/></svg><svg fill="none" viewBox="0 0 25 24" id="drop-arrow" xmlns="http://www.w3.org/2000/svg"><path d="M6.5 9l6 6 6-6" stroke="#fff" stroke-width="2" stroke-linecap="round" stroke-linejoin="round"/></svg><svg fill="none" viewBox="0 0 24 24" id="excel" xmlns="http://www.w3.org/2000/svg"><path d="M2.859 2.877l12.57-1.795a.5.5 0 01.571.495v20.846a.5.5 0 01-.57.495L2.858 21.123a1 1 0 01-.859-.99V3.867a1 1 0 01.859-.99h.001zM4 4.735v14.53l10 1.43V3.305L4 4.736zM17 19h3V5h-3V3h4a1 1 0 011 1v16a1 1 0 01-1 1h-4v-2zm-6.8-7l2.8 4h-2.4L9 13.714 7.4 16H5l2.8-4L5 8h2.4L9 10.286 10.6 8H13l-2.8 4z" fill="#19202A"/></svg><svg fill="none" viewBox="0 0 20 20" id="mail" xmlns="http://www.w3.org/2000/svg"><path d="M3.333 3.333h13.334c.916 0 1.666.75 1.666 1.667v10c0 .916-.75 1.666-1.666 1.666H3.332c-.917 0-1.667-.75-1.667-1.666V5c0-.917.75-1.667 1.667-1.667z" stroke="#19202A" stroke-width="2" stroke-linecap="round" stroke-linejoin="round"/><path d="M18.333 5L10 10.833 1.667 5" stroke="#19202A" stroke-width="2" stroke-linecap="round" stroke-linejoin="round"/></svg><svg fill="none" viewBox="0 0 20 20" id="phone" xmlns="http://www.w3.org/2000/svg"><path d="M18.333 14.1v2.5a1.667 1.667 0 01-1.816 1.667 16.492 16.492 0 01-7.192-2.558 16.25 16.25 0 01-5-5 16.491 16.491 0 01-2.558-7.225 1.666 1.666 0 011.658-1.817h2.5A1.667 1.667 0 017.592 3.1c.105.8.3 1.586.583 2.342A1.667 1.667 0 017.8 7.2L6.742 8.26a13.334 13.334 0 005 5L12.8 12.2a1.666 1.666 0 011.758-.375 10.7 10.7 0 002.342.584 1.666 1.666 0 011.433 1.691z" stroke="#19202A" stroke-width="2" stroke-linecap="round" stroke-linejoin="round"/></svg><svg fill="none" viewBox="0 0 20 20" id="pin" xmlns="http://www.w3.org/2000/svg"><g clip-path="url(#jclip0)" stroke="#19202A" stroke-width="2" stroke-linecap="round" stroke-linejoin="round"><path d="M17.5 8.333c0 5.833-7.5 10.833-7.5 10.833s-7.5-5-7.5-10.833a7.5 7.5 0 1115 0z"/><path d="M10 10.833a2.5 2.5 0 100-5 2.5 2.5 0 000 5z"/></g><defs><clipPath id="jclip0"><path fill="#fff" d="M0 0h20v20H0z"/></clipPath></defs></svg></svg>