<svg width="30" height="30" viewBox="0 0 30 30" fill="none" xmlns="http://www.w3.org/2000/svg">
<rect width="30" height="30" fill="white"/>
<path d="M5.30589 6.28035C5.03676 6.01121 5.03676 5.57486 5.30589 5.30573C5.57502 5.03659 6.01137 5.03659 6.2805 5.30573L24.7982 23.8235C25.0673 24.0927 25.0673 24.529 24.7982 24.7981C24.529 25.0673 24.0927 25.0673 23.8235 24.7981L5.30589 6.28035Z" fill="#19202A"/>
<path d="M23.7195 5.20185C23.9886 4.93272 24.425 4.93272 24.6941 5.20185C24.9632 5.47099 24.9632 5.90734 24.6941 6.17647L6.17646 24.6943C5.90733 24.9634 5.47098 24.9634 5.20185 24.6943C4.93272 24.4251 4.93272 23.9888 5.20185 23.7197L23.7195 5.20185Z" fill="#19202A"/>
</svg>
