<svg width="10" height="11" viewBox="0 0 10 11" fill="none" xmlns="http://www.w3.org/2000/svg">
<path d="M0.152945 1.14017C0.0183792 1.00561 0.0183794 0.78743 0.152945 0.652863C0.287511 0.518296 0.505686 0.518296 0.640252 0.652863L9.89908 9.91176C10.0336 10.0463 10.0336 10.2645 9.89908 10.3991C9.76451 10.5336 9.54634 10.5336 9.41177 10.3991L0.152945 1.14017Z" fill="#19202A"/>
<path d="M9.35975 0.600925C9.49431 0.466358 9.71249 0.466358 9.84706 0.600925C9.98162 0.735493 9.98162 0.953669 9.84706 1.08824L0.588231 10.3471C0.453665 10.4817 0.23549 10.4817 0.100924 10.3471C-0.0336415 10.2126 -0.0336415 9.99439 0.100924 9.85983L9.35975 0.600925Z" fill="#19202A"/>
</svg>
