<svg width="40" height="40" viewBox="0 0 40 40" fill="none" xmlns="http://www.w3.org/2000/svg">
<path d="M5.45884 6.92052C5.05514 6.51682 5.05514 5.86229 5.45884 5.45859C5.86253 5.05489 6.51706 5.05489 6.92076 5.45859L34.6972 33.2353C35.1009 33.639 35.1009 34.2935 34.6972 34.6972C34.2935 35.1009 33.639 35.1009 33.2353 34.6972L5.45884 6.92052Z" fill="#19202A"/>
<path d="M33.0792 5.30278C33.4829 4.89907 34.1375 4.89908 34.5412 5.30278C34.9449 5.70648 34.9449 6.36101 34.5412 6.76471L6.76469 34.5414C6.36099 34.9451 5.70647 34.9451 5.30277 34.5414C4.89908 34.1377 4.89908 33.4832 5.30277 33.0795L33.0792 5.30278Z" fill="#19202A"/>
</svg>
