<svg width="23" height="16" viewBox="0 0 23 16" fill="none" xmlns="http://www.w3.org/2000/svg">
<mask id="path-1-inside-1" fill="white">
<path d="M0.0683594 2.72716C0.0683594 1.95443 0.502604 1.53777 1.37109 1.47716L4.71777 1.49989C4.94238 1.49989 5.09212 1.61353 5.16699 1.8408C5.51139 2.97716 5.89697 3.95822 6.32373 4.78398C6.75049 5.60974 7.30827 6.5605 7.99707 7.63625C8.05697 7.77262 8.1543 7.8408 8.28906 7.8408C8.39388 7.8408 8.47624 7.78777 8.53613 7.68171L8.60352 7.43171L8.62598 3.49989C8.62598 3.22716 8.56234 3.04534 8.43506 2.95443C8.30778 2.86353 8.07194 2.79534 7.72754 2.74989C7.45801 2.70443 7.32324 2.53777 7.32324 2.24989C7.32324 2.18928 7.33073 2.14383 7.3457 2.11353C7.66016 1.12868 8.55859 0.636253 10.041 0.636253L11.2988 0.613525C11.8678 0.613525 12.3395 0.757465 12.7139 1.04534C13.0882 1.33322 13.2754 1.78777 13.2754 2.40898V7.56807C13.3802 7.64383 13.4775 7.68171 13.5674 7.68171C13.792 7.68171 13.9867 7.54534 14.1514 7.27262C15.7985 4.93928 16.6895 3.37868 16.8242 2.5908C16.8242 2.57565 16.8392 2.53777 16.8691 2.47716C16.974 2.24989 17.1462 2.05292 17.3857 1.88625C17.6253 1.71959 17.835 1.60595 18.0146 1.54534C18.0745 1.51504 18.1419 1.49989 18.2168 1.49989H21.6982L21.9229 1.52262C22.2223 1.52262 22.4544 1.66656 22.6191 1.95443C22.679 2.04534 22.7202 2.14383 22.7427 2.24989C22.7651 2.35595 22.7801 2.46201 22.7876 2.56807C22.7951 2.67413 22.7988 2.73474 22.7988 2.74989V2.90898C22.694 3.53019 22.4282 4.19307 22.0015 4.89762C21.5747 5.60216 21.0319 6.36353 20.373 7.18171C19.7142 7.99989 19.3024 8.53777 19.1377 8.79534C19.0029 8.97716 18.9355 9.14383 18.9355 9.29534C18.9355 9.41656 18.9954 9.55292 19.1152 9.70443L22.3945 13.8863C22.5742 14.1287 22.6641 14.3938 22.6641 14.6817C22.6641 15.0302 22.5293 15.3181 22.2598 15.5453C21.9902 15.7726 21.6683 15.9014 21.2939 15.9317L20.9121 15.9544H17.498C17.4831 15.9544 17.4531 15.9582 17.4082 15.9658C17.3633 15.9734 17.3333 15.9772 17.3184 15.9772C16.9889 15.9772 16.682 15.8332 16.3975 15.5453C16.2926 15.4241 15.5889 14.5302 14.2861 12.8635C14.2113 12.7575 14.1064 12.659 13.9717 12.5681C13.9118 12.8105 13.8332 13.159 13.7358 13.6135C13.6385 14.0681 13.5674 14.3938 13.5225 14.5908L13.4551 14.9772C13.3053 15.5075 12.9909 15.8256 12.5117 15.9317L12.1973 15.9544H9.99609C8.75325 15.9544 7.51416 15.3787 6.27881 14.2272C5.04346 13.0756 3.93164 11.587 2.94336 9.76125C1.95508 7.9355 1.03418 5.8105 0.180664 3.38625C0.105794 3.18928 0.0683594 2.96959 0.0683594 2.72716ZM13.5674 8.61353C13.2529 8.61353 12.9684 8.5264 12.7139 8.35216C12.4593 8.17792 12.332 7.93928 12.332 7.63625V2.40898C12.332 2.10595 12.2572 1.89004 12.1074 1.76125C11.9577 1.63246 11.6956 1.56807 11.3213 1.56807L10.041 1.61353C9.39714 1.61353 8.91048 1.72716 8.58105 1.95443C9.23991 2.27262 9.56934 2.78777 9.56934 3.49989V7.49989C9.53939 7.87868 9.38965 8.19307 9.12012 8.44307C8.85059 8.69307 8.55111 8.81807 8.22168 8.81807C7.77246 8.81807 7.42806 8.59837 7.18848 8.15898C6.02051 6.3711 5.15202 4.67413 4.58301 3.06807L4.38086 2.47716L1.39355 2.45443C1.19889 2.45443 1.09033 2.4658 1.06787 2.48853C1.04541 2.51125 1.03418 2.57565 1.03418 2.68171C1.03418 2.81807 1.04915 2.96201 1.0791 3.11353L1.55078 4.38625C2.80859 7.67413 4.17497 10.265 5.6499 12.159C7.12484 14.0529 8.57357 14.9999 9.99609 14.9999H12.2422C12.332 14.9999 12.3994 14.9734 12.4443 14.9203C12.4893 14.8673 12.5267 14.765 12.5566 14.6135L12.6016 14.3863L13.0283 12.3863C13.1481 12.1135 13.2529 11.9317 13.3428 11.8408C13.5075 11.6741 13.7021 11.5908 13.9268 11.5908C14.2861 11.5908 14.653 11.8105 15.0273 12.2499L16.9365 14.7044C17.0563 14.9014 17.1836 14.9999 17.3184 14.9999H21.0244C21.4736 14.9999 21.6982 14.8863 21.6982 14.659C21.6982 14.5832 21.6758 14.5075 21.6309 14.4317L18.374 10.3181C18.1195 9.99989 17.9922 9.65898 17.9922 9.29534C17.9922 8.93171 18.112 8.58322 18.3516 8.24989C18.5462 7.94686 18.9243 7.44307 19.4858 6.73853C20.0474 6.03398 20.5378 5.37489 20.957 4.76125C21.3763 4.14762 21.6533 3.5908 21.7881 3.0908L21.8555 2.79534C21.8405 2.76504 21.833 2.7158 21.833 2.64762C21.833 2.57943 21.8255 2.52262 21.8105 2.47716H18.2842C18.0596 2.56807 17.8799 2.70443 17.7451 2.88625L17.6104 3.31807C17.236 4.36353 16.2552 5.97716 14.668 8.15898C14.3535 8.46201 13.9867 8.61353 13.5674 8.61353Z"/>
</mask>
<path d="M0.0683594 2.72716C0.0683594 1.95443 0.502604 1.53777 1.37109 1.47716L4.71777 1.49989C4.94238 1.49989 5.09212 1.61353 5.16699 1.8408C5.51139 2.97716 5.89697 3.95822 6.32373 4.78398C6.75049 5.60974 7.30827 6.5605 7.99707 7.63625C8.05697 7.77262 8.1543 7.8408 8.28906 7.8408C8.39388 7.8408 8.47624 7.78777 8.53613 7.68171L8.60352 7.43171L8.62598 3.49989C8.62598 3.22716 8.56234 3.04534 8.43506 2.95443C8.30778 2.86353 8.07194 2.79534 7.72754 2.74989C7.45801 2.70443 7.32324 2.53777 7.32324 2.24989C7.32324 2.18928 7.33073 2.14383 7.3457 2.11353C7.66016 1.12868 8.55859 0.636253 10.041 0.636253L11.2988 0.613525C11.8678 0.613525 12.3395 0.757465 12.7139 1.04534C13.0882 1.33322 13.2754 1.78777 13.2754 2.40898V7.56807C13.3802 7.64383 13.4775 7.68171 13.5674 7.68171C13.792 7.68171 13.9867 7.54534 14.1514 7.27262C15.7985 4.93928 16.6895 3.37868 16.8242 2.5908C16.8242 2.57565 16.8392 2.53777 16.8691 2.47716C16.974 2.24989 17.1462 2.05292 17.3857 1.88625C17.6253 1.71959 17.835 1.60595 18.0146 1.54534C18.0745 1.51504 18.1419 1.49989 18.2168 1.49989H21.6982L21.9229 1.52262C22.2223 1.52262 22.4544 1.66656 22.6191 1.95443C22.679 2.04534 22.7202 2.14383 22.7427 2.24989C22.7651 2.35595 22.7801 2.46201 22.7876 2.56807C22.7951 2.67413 22.7988 2.73474 22.7988 2.74989V2.90898C22.694 3.53019 22.4282 4.19307 22.0015 4.89762C21.5747 5.60216 21.0319 6.36353 20.373 7.18171C19.7142 7.99989 19.3024 8.53777 19.1377 8.79534C19.0029 8.97716 18.9355 9.14383 18.9355 9.29534C18.9355 9.41656 18.9954 9.55292 19.1152 9.70443L22.3945 13.8863C22.5742 14.1287 22.6641 14.3938 22.6641 14.6817C22.6641 15.0302 22.5293 15.3181 22.2598 15.5453C21.9902 15.7726 21.6683 15.9014 21.2939 15.9317L20.9121 15.9544H17.498C17.4831 15.9544 17.4531 15.9582 17.4082 15.9658C17.3633 15.9734 17.3333 15.9772 17.3184 15.9772C16.9889 15.9772 16.682 15.8332 16.3975 15.5453C16.2926 15.4241 15.5889 14.5302 14.2861 12.8635C14.2113 12.7575 14.1064 12.659 13.9717 12.5681C13.9118 12.8105 13.8332 13.159 13.7358 13.6135C13.6385 14.0681 13.5674 14.3938 13.5225 14.5908L13.4551 14.9772C13.3053 15.5075 12.9909 15.8256 12.5117 15.9317L12.1973 15.9544H9.99609C8.75325 15.9544 7.51416 15.3787 6.27881 14.2272C5.04346 13.0756 3.93164 11.587 2.94336 9.76125C1.95508 7.9355 1.03418 5.8105 0.180664 3.38625C0.105794 3.18928 0.0683594 2.96959 0.0683594 2.72716ZM13.5674 8.61353C13.2529 8.61353 12.9684 8.5264 12.7139 8.35216C12.4593 8.17792 12.332 7.93928 12.332 7.63625V2.40898C12.332 2.10595 12.2572 1.89004 12.1074 1.76125C11.9577 1.63246 11.6956 1.56807 11.3213 1.56807L10.041 1.61353C9.39714 1.61353 8.91048 1.72716 8.58105 1.95443C9.23991 2.27262 9.56934 2.78777 9.56934 3.49989V7.49989C9.53939 7.87868 9.38965 8.19307 9.12012 8.44307C8.85059 8.69307 8.55111 8.81807 8.22168 8.81807C7.77246 8.81807 7.42806 8.59837 7.18848 8.15898C6.02051 6.3711 5.15202 4.67413 4.58301 3.06807L4.38086 2.47716L1.39355 2.45443C1.19889 2.45443 1.09033 2.4658 1.06787 2.48853C1.04541 2.51125 1.03418 2.57565 1.03418 2.68171C1.03418 2.81807 1.04915 2.96201 1.0791 3.11353L1.55078 4.38625C2.80859 7.67413 4.17497 10.265 5.6499 12.159C7.12484 14.0529 8.57357 14.9999 9.99609 14.9999H12.2422C12.332 14.9999 12.3994 14.9734 12.4443 14.9203C12.4893 14.8673 12.5267 14.765 12.5566 14.6135L12.6016 14.3863L13.0283 12.3863C13.1481 12.1135 13.2529 11.9317 13.3428 11.8408C13.5075 11.6741 13.7021 11.5908 13.9268 11.5908C14.2861 11.5908 14.653 11.8105 15.0273 12.2499L16.9365 14.7044C17.0563 14.9014 17.1836 14.9999 17.3184 14.9999H21.0244C21.4736 14.9999 21.6982 14.8863 21.6982 14.659C21.6982 14.5832 21.6758 14.5075 21.6309 14.4317L18.374 10.3181C18.1195 9.99989 17.9922 9.65898 17.9922 9.29534C17.9922 8.93171 18.112 8.58322 18.3516 8.24989C18.5462 7.94686 18.9243 7.44307 19.4858 6.73853C20.0474 6.03398 20.5378 5.37489 20.957 4.76125C21.3763 4.14762 21.6533 3.5908 21.7881 3.0908L21.8555 2.79534C21.8405 2.76504 21.833 2.7158 21.833 2.64762C21.833 2.57943 21.8255 2.52262 21.8105 2.47716H18.2842C18.0596 2.56807 17.8799 2.70443 17.7451 2.88625L17.6104 3.31807C17.236 4.36353 16.2552 5.97716 14.668 8.15898C14.3535 8.46201 13.9867 8.61353 13.5674 8.61353Z" fill="#969696" stroke="#969696" stroke-width="2" mask="url(#path-1-inside-1)"/>
</svg>
