<svg width="21" height="18" viewBox="0 0 21 18" fill="none" xmlns="http://www.w3.org/2000/svg">
<path d="M21 8.93447C21 8.88291 21 8.82432 20.9977 8.75635C20.9953 8.5665 20.9906 8.35322 20.9859 8.12588C20.9672 7.47197 20.9344 6.82041 20.8828 6.20635C20.8125 5.36025 20.7094 4.65478 20.5687 4.1251C20.4204 3.57232 20.1295 3.06818 19.7252 2.66306C19.3209 2.25794 18.8173 1.96603 18.2648 1.8165C17.6016 1.63838 16.3031 1.52822 14.475 1.46025C13.6055 1.42744 12.675 1.40635 11.7445 1.39463C11.4187 1.38994 11.1164 1.3876 10.8445 1.38525H10.1555C9.88359 1.3876 9.58125 1.38994 9.25547 1.39463C8.325 1.40635 7.39453 1.42744 6.525 1.46025C4.69687 1.53057 3.39609 1.64072 2.73516 1.8165C2.1825 1.96566 1.67876 2.25745 1.2744 2.66262C0.870044 3.0678 0.579282 3.57214 0.43125 4.1251C0.288281 4.65478 0.1875 5.36025 0.117188 6.20635C0.065625 6.82041 0.0328125 7.47197 0.0140625 8.12588C0.00703121 8.35322 0.00468746 8.5665 0.00234371 8.75635C0.00234371 8.82432 0 8.88291 0 8.93447V9.06572C0 9.11728 -3.57977e-08 9.17588 0.00234371 9.24385C0.00468746 9.43369 0.00937496 9.64697 0.0140625 9.87432C0.0328125 10.5282 0.065625 11.1798 0.117188 11.7938C0.1875 12.6399 0.290625 13.3454 0.43125 13.8751C0.73125 14.9978 1.6125 15.8837 2.73516 16.1837C3.39609 16.3618 4.69687 16.472 6.525 16.5399C7.39453 16.5728 8.325 16.5938 9.25547 16.6056C9.58125 16.6103 9.88359 16.6126 10.1555 16.6149H10.8445C11.1164 16.6126 11.4187 16.6103 11.7445 16.6056C12.675 16.5938 13.6055 16.5728 14.475 16.5399C16.3031 16.4696 17.6039 16.3595 18.2648 16.1837C19.3875 15.8837 20.2687 15.0001 20.5687 13.8751C20.7117 13.3454 20.8125 12.6399 20.8828 11.7938C20.9344 11.1798 20.9672 10.5282 20.9859 9.87432C20.993 9.64697 20.9953 9.43369 20.9977 9.24385C20.9977 9.17588 21 9.11728 21 9.06572V8.93447ZM19.3125 9.05635C19.3125 9.10557 19.3125 9.15947 19.3102 9.22275C19.3078 9.40557 19.3031 9.60713 19.2984 9.8251C19.282 10.4485 19.2492 11.072 19.2 11.6509C19.1367 12.4056 19.0477 13.0243 18.9375 13.4392C18.7922 13.9806 18.3656 14.4095 17.8266 14.5524C17.3344 14.6837 16.0945 14.7892 14.4094 14.8524C13.5562 14.8853 12.6375 14.9063 11.7211 14.9181C11.4 14.9228 11.1023 14.9251 10.8352 14.9251H10.1648L9.27891 14.9181C8.3625 14.9063 7.44609 14.8853 6.59063 14.8524C4.90547 14.7868 3.66328 14.6837 3.17344 14.5524C2.63437 14.4071 2.20781 13.9806 2.0625 13.4392C1.95234 13.0243 1.86328 12.4056 1.8 11.6509C1.75078 11.072 1.72031 10.4485 1.70156 9.8251C1.69453 9.60713 1.69219 9.40322 1.68984 9.22275C1.68984 9.15947 1.6875 9.10322 1.6875 9.05635V8.94385C1.6875 8.89463 1.6875 8.84072 1.68984 8.77744C1.69219 8.59463 1.69688 8.39307 1.70156 8.1751C1.71797 7.55166 1.75078 6.92822 1.8 6.34932C1.86328 5.59463 1.95234 4.97588 2.0625 4.56104C2.20781 4.01963 2.63437 3.59072 3.17344 3.44775C3.66562 3.3165 4.90547 3.21103 6.59063 3.14775C7.44375 3.11494 8.3625 3.09385 9.27891 3.08213C9.6 3.07744 9.89766 3.0751 10.1648 3.0751H10.8352L11.7211 3.08213C12.6375 3.09385 13.5539 3.11494 14.4094 3.14775C16.0945 3.21338 17.3367 3.3165 17.8266 3.44775C18.3656 3.59307 18.7922 4.01963 18.9375 4.56104C19.0477 4.97588 19.1367 5.59463 19.2 6.34932C19.2492 6.92822 19.2797 7.55166 19.2984 8.1751C19.3055 8.39307 19.3078 8.59697 19.3102 8.77744C19.3102 8.84072 19.3125 8.89697 19.3125 8.94385V9.05635ZM8.41406 12.1407L13.8516 8.97666L8.41406 5.85947V12.1407Z" fill="#969696"/>
</svg>
