<svg width="23" height="16" fill="none" xmlns="http://www.w3.org/2000/svg"><mask id="a" fill="#fff"><path d="M.068 2.727c0-.773.435-1.19 1.303-1.25l3.347.023c.224 0 .374.114.449.34.344 1.137.73 2.118 1.157 2.944a36.42 36.42 0 001.673 2.852c.06.137.157.205.292.205.105 0 .187-.053.247-.16l.068-.25.022-3.931c0-.273-.064-.455-.19-.546-.128-.09-.364-.159-.708-.204-.27-.046-.405-.212-.405-.5a.32.32 0 01.023-.136C7.66 1.129 8.559.636 10.04.636l1.258-.022c.569 0 1.04.143 1.415.431.374.288.561.743.561 1.364v5.16a.51.51 0 00.292.113c.225 0 .42-.137.584-.41 1.65-2.332 2.54-3.892 2.674-4.68 0-.015.015-.053.045-.114.105-.227.277-.424.517-.59.24-.167.449-.281.629-.342a.442.442 0 01.202-.045h3.481l.225.023c.3 0 .531.144.696.431.06.091.101.19.124.296.022.106.037.212.045.318.007.106.01.167.01.182v.159c-.104.621-.37 1.284-.796 1.989-.427.704-.97 1.466-1.629 2.284-.659.818-1.07 1.356-1.235 1.613-.135.182-.203.349-.203.5 0 .122.06.258.18.41l3.28 4.181c.18.243.27.508.27.796 0 .348-.136.636-.405.863a1.67 1.67 0 01-.966.387l-.382.022h-3.414a.68.68 0 00-.09.012.68.68 0 01-.09.011c-.33 0-.636-.144-.92-.432-.105-.12-.81-1.015-2.112-2.681a1.198 1.198 0 00-.314-.296c-.06.242-.139.591-.236 1.046-.098.454-.169.78-.213.977l-.068.386c-.15.53-.464.849-.943.955l-.315.022h-2.2c-1.244 0-2.483-.575-3.718-1.727-1.236-1.151-2.347-2.64-3.336-4.466-.988-1.825-1.909-3.95-2.762-6.375a1.842 1.842 0 01-.113-.659zm13.5 5.887c-.315 0-.6-.088-.854-.262a.823.823 0 01-.382-.716V2.41c0-.303-.075-.519-.225-.648-.15-.129-.411-.193-.786-.193l-1.28.046c-.644 0-1.13.113-1.46.34.659.319.988.834.988 1.546v4a1.39 1.39 0 01-.449.943c-.27.25-.569.375-.898.375-.45 0-.794-.22-1.034-.659-1.167-1.788-2.036-3.485-2.605-5.09l-.202-.592-2.987-.023c-.195 0-.304.012-.326.035-.023.022-.034.087-.034.193 0 .136.015.28.045.432l.472 1.272c1.258 3.288 2.624 5.879 4.099 7.773C7.125 14.054 8.574 15 9.996 15h2.246c.09 0 .157-.026.202-.079.045-.053.083-.155.113-.306l.045-.228.426-2c.12-.272.225-.454.315-.545a.794.794 0 01.584-.25c.36 0 .726.22 1.1.659l1.91 2.454c.12.197.247.296.381.296h3.706c.45 0 .674-.114.674-.341a.442.442 0 00-.067-.227l-3.257-4.114c-.255-.318-.382-.659-.382-1.023 0-.363.12-.712.36-1.045.194-.303.572-.807 1.134-1.511a33.69 33.69 0 001.471-1.978c.42-.613.696-1.17.831-1.67l.067-.296a.355.355 0 01-.022-.147.551.551 0 00-.022-.17h-3.527c-.224.09-.404.226-.539.408l-.135.432c-.374 1.046-1.355 2.66-2.942 4.841a1.536 1.536 0 01-1.1.455z"/></mask><path d="M.068 2.727c0-.773.435-1.19 1.303-1.25l3.347.023c.224 0 .374.114.449.34.344 1.137.73 2.118 1.157 2.944a36.42 36.42 0 001.673 2.852c.06.137.157.205.292.205.105 0 .187-.053.247-.16l.068-.25.022-3.931c0-.273-.064-.455-.19-.546-.128-.09-.364-.159-.708-.204-.27-.046-.405-.212-.405-.5a.32.32 0 01.023-.136C7.66 1.129 8.559.636 10.04.636l1.258-.022c.569 0 1.04.143 1.415.431.374.288.561.743.561 1.364v5.16a.51.51 0 00.292.113c.225 0 .42-.137.584-.41 1.65-2.332 2.54-3.892 2.674-4.68 0-.015.015-.053.045-.114.105-.227.277-.424.517-.59.24-.167.449-.281.629-.342a.442.442 0 01.202-.045h3.481l.225.023c.3 0 .531.144.696.431.06.091.101.19.124.296.022.106.037.212.045.318.007.106.01.167.01.182v.159c-.104.621-.37 1.284-.796 1.989-.427.704-.97 1.466-1.629 2.284-.659.818-1.07 1.356-1.235 1.613-.135.182-.203.349-.203.5 0 .122.06.258.18.41l3.28 4.181c.18.243.27.508.27.796 0 .348-.136.636-.405.863a1.67 1.67 0 01-.966.387l-.382.022h-3.414a.68.68 0 00-.09.012.68.68 0 01-.09.011c-.33 0-.636-.144-.92-.432-.105-.12-.81-1.015-2.112-2.681a1.198 1.198 0 00-.314-.296c-.06.242-.139.591-.236 1.046-.098.454-.169.78-.213.977l-.068.386c-.15.53-.464.849-.943.955l-.315.022h-2.2c-1.244 0-2.483-.575-3.718-1.727-1.236-1.151-2.347-2.64-3.336-4.466-.988-1.825-1.909-3.95-2.762-6.375a1.842 1.842 0 01-.113-.659zm13.5 5.887c-.315 0-.6-.088-.854-.262a.823.823 0 01-.382-.716V2.41c0-.303-.075-.519-.225-.648-.15-.129-.411-.193-.786-.193l-1.28.046c-.644 0-1.13.113-1.46.34.659.319.988.834.988 1.546v4a1.39 1.39 0 01-.449.943c-.27.25-.569.375-.898.375-.45 0-.794-.22-1.034-.659-1.167-1.788-2.036-3.485-2.605-5.09l-.202-.592-2.987-.023c-.195 0-.304.012-.326.035-.023.022-.034.087-.034.193 0 .136.015.28.045.432l.472 1.272c1.258 3.288 2.624 5.879 4.099 7.773C7.125 14.054 8.574 15 9.996 15h2.246c.09 0 .157-.026.202-.079.045-.053.083-.155.113-.306l.045-.228.426-2c.12-.272.225-.454.315-.545a.794.794 0 01.584-.25c.36 0 .726.22 1.1.659l1.91 2.454c.12.197.247.296.381.296h3.706c.45 0 .674-.114.674-.341a.442.442 0 00-.067-.227l-3.257-4.114c-.255-.318-.382-.659-.382-1.023 0-.363.12-.712.36-1.045.194-.303.572-.807 1.134-1.511a33.69 33.69 0 001.471-1.978c.42-.613.696-1.17.831-1.67l.067-.296a.355.355 0 01-.022-.147.551.551 0 00-.022-.17h-3.527c-.224.09-.404.226-.539.408l-.135.432c-.374 1.046-1.355 2.66-2.942 4.841a1.536 1.536 0 01-1.1.455z" fill="#969696" stroke="#969696" stroke-width="2" mask="url(#a)"/></svg>