<svg width="21" height="25" viewBox="0 0 21 25" fill="none" xmlns="http://www.w3.org/2000/svg">
<path d="M8.27907 0C7.75205 0 7.20888 0.192709 6.82724 0.586459C6.44662 0.979167 6.25984 1.53958 6.25984 2.08333V3.125H0.202148V5.20833H1.21176V21.875C1.21176 23.5885 2.57979 25 4.24061 25H16.356C18.0168 25 19.3848 23.5885 19.3848 21.875V5.20833H20.3945V3.125H14.3368V2.08333C14.3368 1.53958 14.15 0.979166 13.7683 0.585416C13.3877 0.19375 12.8456 0 12.3175 0H8.27907ZM8.27907 2.08333H12.3175V3.125H8.27907V2.08333ZM3.23099 5.20833H17.3656V21.875C17.3656 22.4531 16.9163 22.9167 16.356 22.9167H4.24061C3.68027 22.9167 3.23099 22.4531 3.23099 21.875V5.20833ZM5.25022 8.33333V19.7917H7.26945V8.33333H5.25022ZM9.28868 8.33333V19.7917H11.3079V8.33333H9.28868ZM13.3271 8.33333V19.7917H15.3464V8.33333H13.3271Z" fill="#19202A"/>
</svg>
